<svg width="20" height="20" viewBox="0 0 20 20" fill="none" xmlns="http://www.w3.org/2000/svg">
<path d="M14.1999 16C13.7226 15.9998 13.2649 15.81 12.9274 15.4725C12.5899 15.135 12.4001 14.6773 12.3999 14.2C12.4 13.7226 12.5896 13.2648 12.9272 12.9273C13.2647 12.5897 13.7225 12.4001 14.1999 12.4C14.6773 12.4001 15.1351 12.5897 15.4726 12.9273C15.8102 13.2648 15.9998 13.7226 15.9999 14.2C15.9999 14.4364 15.9534 14.6705 15.863 14.8889C15.7726 15.1073 15.64 15.3058 15.4728 15.4729C15.3057 15.6401 15.1072 15.7727 14.8888 15.8631C14.6704 15.9536 14.4363 16.0001 14.1999 16Z" stroke="#FFCB00" stroke-width="1.5" stroke-linecap="round" stroke-linejoin="round"/>
<path d="M4 14.2C4.00006 13.7226 4.18972 13.2648 4.52727 12.9273C4.86482 12.5897 5.32262 12.4001 5.79999 12.4C6.27736 12.4001 6.73516 12.5897 7.07271 12.9273C7.41027 13.2648 7.59992 13.7226 7.59998 14.2C7.60004 14.4364 7.55353 14.6705 7.46309 14.8889C7.37265 15.1073 7.24007 15.3058 7.07291 15.4729C6.90576 15.6401 6.7073 15.7727 6.48889 15.8631C6.27048 15.9536 6.03639 16.0001 5.79999 16C5.32268 15.9998 4.86499 15.81 4.52748 15.4725C4.18996 15.135 4.00024 14.6773 4 14.2Z" stroke="#FFCB00" stroke-width="1.5" stroke-linecap="round" stroke-linejoin="round"/>
<path d="M5.79999 4C6.27736 4.00006 6.73516 4.18972 7.07271 4.52727C7.41027 4.86482 7.59992 5.32262 7.59998 5.79999C7.59992 6.27736 7.41027 6.73516 7.07271 7.07271C6.73516 7.41027 6.27736 7.59992 5.79999 7.59998C5.5636 7.60004 5.3295 7.55353 5.11109 7.46309C4.89268 7.37265 4.69423 7.24007 4.52707 7.07291C4.35991 6.90576 4.22733 6.7073 4.13689 6.48889C4.04645 6.27048 3.99994 6.03639 4 5.79999C4.00024 5.32268 4.18996 4.86499 4.52748 4.52748C4.86499 4.18996 5.32268 4.00024 5.79999 4Z" stroke="#FFCB00" stroke-width="1.5" stroke-linecap="round" stroke-linejoin="round"/>
<path d="M7.6001 5.80002H9.40009" stroke="#FFCB00" stroke-width="1.5" stroke-linecap="round" stroke-linejoin="round"/>
<path d="M15.9999 5.79999C15.9996 6.2773 15.8099 6.735 15.4724 7.07251C15.1349 7.41002 14.6772 7.59974 14.1999 7.59998C13.7225 7.59992 13.2647 7.41026 12.9272 7.07271C12.5896 6.73516 12.4 6.27736 12.3999 5.79999C12.4 5.32262 12.5896 4.86482 12.9272 4.52727C13.2647 4.18972 13.7225 4.00006 14.1999 4C14.4363 3.99994 14.6704 4.04645 14.8888 4.13689C15.1072 4.22733 15.3057 4.35991 15.4728 4.52707C15.64 4.69423 15.7726 4.89268 15.863 5.11109C15.9534 5.3295 15.9999 5.5636 15.9999 5.79999Z" stroke="#FFCB00" stroke-width="1.5" stroke-linecap="round" stroke-linejoin="round"/>
<path d="M14.2002 7.59998V9.39997" stroke="#FFCB00" stroke-width="1.5" stroke-linecap="round" stroke-linejoin="round"/>
<path d="M12.4001 14.2H10.6001" stroke="#FFCB00" stroke-width="1.5" stroke-linecap="round" stroke-linejoin="round"/>
<path d="M5.7998 12.4V10.6" stroke="#FFCB00" stroke-width="1.5" stroke-linecap="round" stroke-linejoin="round"/>
</svg>
