<svg width="20" height="20" viewBox="0 0 20 20" fill="none" xmlns="http://www.w3.org/2000/svg">
<g clip-path="url(#clip0_408_2353)">
<path d="M16.3335 12.5L18.8335 10L16.3335 7.5" stroke="#6B7588" stroke-width="1.5" stroke-linecap="round" stroke-linejoin="round"/>
<path d="M18 10H11" stroke="#6B7588" stroke-width="1.5" stroke-linecap="round" stroke-linejoin="round"/>
<path d="M15.3033 15.3033C14.2544 16.3522 12.918 17.0665 11.4632 17.3559C10.0083 17.6453 8.50032 17.4968 7.12987 16.9291C5.75943 16.3614 4.58809 15.4001 3.76398 14.1668C2.93987 12.9334 2.5 11.4834 2.5 10C2.5 8.51664 2.93987 7.0666 3.76398 5.83323C4.58809 4.59986 5.75943 3.63856 7.12987 3.07091C8.50032 2.50325 10.0083 2.35472 11.4632 2.64411C12.918 2.9335 14.2544 3.64781 15.3033 4.6967" stroke="#6B7588" stroke-width="1.5" stroke-linecap="round" stroke-linejoin="round"/>
</g>
<defs>
<clipPath id="clip0_408_2353">
<rect width="20" height="20" fill="white"/>
</clipPath>
</defs>
</svg>
